<mxfile host="Electron" agent="Mozilla/5.0 (Windows NT 10.0; Win64; x64) AppleWebKit/537.36 (KHTML, like Gecko) draw.io/26.1.1 Chrome/132.0.6834.210 Electron/34.3.3 Safari/537.36" version="26.1.1">
  <diagram name="第 1 页" id="2XPxEPD8QWiGUB0XQ1s3">
    <mxGraphModel dx="1434" dy="836" grid="1" gridSize="10" guides="1" tooltips="1" connect="1" arrows="1" fold="1" page="1" pageScale="1" pageWidth="827" pageHeight="1169" background="#ffffff" math="1" shadow="0">
      <root>
        <mxCell id="0" />
        <mxCell id="1" parent="0" />
        <mxCell id="Zkc87OH1CZHe2kbnG5ns-1" value="" style="rounded=0;whiteSpace=wrap;html=1;strokeWidth=3;labelBorderColor=none;strokeColor=#2E2E2E;fillStyle=solid;fillColor=#E6E6E6;" parent="1" vertex="1">
          <mxGeometry x="440" y="400" width="200" height="30" as="geometry" />
        </mxCell>
        <mxCell id="Zkc87OH1CZHe2kbnG5ns-4" value="" style="rounded=0;whiteSpace=wrap;html=1;shadow=0;textShadow=0;labelBorderColor=none;fillStyle=hatch;noLabel=0;glass=0;fillColor=#000000;autosize=0;strokeWidth=6;strokeOpacity=0;perimeterSpacing=0;sketch=1;curveFitting=1;jiggle=0;hachureGap=6;" parent="1" vertex="1">
          <mxGeometry x="425" y="355" width="10" height="120" as="geometry" />
        </mxCell>
        <mxCell id="Zkc87OH1CZHe2kbnG5ns-7" value="$$v_0$$" style="endArrow=classic;rounded=0;targetPerimeterSpacing=0;strokeWidth=1;sourcePerimeterSpacing=10;verticalAlign=top;textShadow=0;html=1;labelBackgroundColor=none;" parent="1" edge="1">
          <mxGeometry x="-1" y="-16" width="50" height="50" relative="1" as="geometry">
            <mxPoint x="487" y="412.65999999999997" as="sourcePoint" />
            <mxPoint x="447" y="412.65999999999997" as="targetPoint" />
            <mxPoint as="offset" />
          </mxGeometry>
        </mxCell>
        <mxCell id="Zkc87OH1CZHe2kbnG5ns-10" value="&lt;span style=&quot;line-height: 10%;&quot;&gt;&lt;font style=&quot;line-height: 10%;&quot;&gt;$$L$$&lt;/font&gt;&lt;/span&gt;" style="endArrow=classic;startArrow=classic;html=1;rounded=0;fontSize=11;fontFamily=latex;spacingBottom=20;spacingLeft=0;" parent="1" edge="1">
          <mxGeometry y="-9" width="50" height="50" relative="1" as="geometry">
            <mxPoint x="440" y="451" as="sourcePoint" />
            <mxPoint x="640" y="451" as="targetPoint" />
            <mxPoint as="offset" />
          </mxGeometry>
        </mxCell>
        <mxCell id="4dJq45dmXwDwCJe4h9BY-1" value="" style="endArrow=none;html=1;rounded=0;strokeWidth=3;" parent="1" edge="1">
          <mxGeometry width="50" height="50" relative="1" as="geometry">
            <mxPoint x="435" y="475" as="sourcePoint" />
            <mxPoint x="435" y="355" as="targetPoint" />
          </mxGeometry>
        </mxCell>
        <mxCell id="ACcETMoGYX4XkaIuRK3t-5" value="" style="endArrow=none;html=1;rounded=0;" parent="1" edge="1">
          <mxGeometry width="50" height="50" relative="1" as="geometry">
            <mxPoint x="440" y="460" as="sourcePoint" />
            <mxPoint x="440" y="440" as="targetPoint" />
          </mxGeometry>
        </mxCell>
        <mxCell id="ACcETMoGYX4XkaIuRK3t-6" value="" style="endArrow=none;html=1;rounded=0;" parent="1" edge="1">
          <mxGeometry width="50" height="50" relative="1" as="geometry">
            <mxPoint x="640" y="460" as="sourcePoint" />
            <mxPoint x="640" y="440" as="targetPoint" />
          </mxGeometry>
        </mxCell>
      </root>
    </mxGraphModel>
  </diagram>
</mxfile>
